<?xml version="1.0" encoding="utf-8"?>
<!-- Generator: Adobe Illustrator 25.4.1, SVG Export Plug-In . SVG Version: 6.00 Build 0)  -->
<svg version="1.1" id="Camada_1" xmlns="http://www.w3.org/2000/svg" xmlns:xlink="http://www.w3.org/1999/xlink" x="0px" y="0px"
	 viewBox="0 0 500 500" style="enable-background:new 0 0 500 500;" xml:space="preserve">
<style type="text/css">
	.st0{fill:none;stroke:#F21D1D;stroke-width:2.945;stroke-miterlimit:10;}
	.st1{opacity:0.2;fill:#F21D1D;stroke:#F21D1D;stroke-width:2.945;stroke-miterlimit:10;enable-background:new    ;}
	.st2{fill:none;stroke:#F21D1D;stroke-width:13.1078;stroke-miterlimit:10;}
	.st3{fill:none;stroke:#F21D1D;stroke-width:5.2431;stroke-miterlimit:10;}
</style>
<polygon class="st0" points="437.7,186.5 64.2,186.5 32.1,242.1 64.2,297.7 437.7,297.7 469.8,242.1 "/>
<polygon class="st1" points="430.5,186.5 57,186.5 24.9,242.1 57,297.7 430.5,297.7 462.6,242.1 "/>
<polyline class="st2" points="128.7,186.5 61.4,186.5 29.3,242.1 61.4,297.7 128.7,297.7 "/>
<polyline class="st2" points="367.5,186.5 434.9,186.5 467,242.1 434.9,297.7 367.5,297.7 "/>
<polyline class="st3" points="24.9,211.5 7.3,242.1 24.9,272.7 "/>
<polyline class="st3" points="471.3,211.5 489,242.1 471.3,272.7 "/>
<path class="st3" d="M7.3,242.1"/>
</svg>