<?xml version="1.0" encoding="utf-8"?>
<!-- Generator: Adobe Illustrator 25.4.1, SVG Export Plug-In . SVG Version: 6.00 Build 0)  -->
<svg version="1.1" id="Layer_1" xmlns="http://www.w3.org/2000/svg" xmlns:xlink="http://www.w3.org/1999/xlink" x="0px" y="0px"
	 viewBox="0 0 512 256" style="enable-background:new 0 0 512 256;" xml:space="preserve">
<style type="text/css">
	
		.st0{clip-path:url(#SVGID_00000012460288543782761140000016496853114318931128_);fill:#9FBEC9;stroke:#231F20;stroke-width:0.9;stroke-miterlimit:10;}
	.st1{clip-path:url(#SVGID_00000012460288543782761140000016496853114318931128_);}
	.st2{fill:#91BECA;}
	.st3{fill:#1F191A;}
	.st4{clip-path:url(#SVGID_00000012460288543782761140000016496853114318931128_);fill:none;}
	.st5{fill:#9FBEC9;stroke:#231F20;stroke-width:3;stroke-miterlimit:10;}
	.st6{fill:#9FBEC9;stroke:#231F20;stroke-width:2;stroke-miterlimit:10;}
	.st7{fill:none;stroke:#231F20;stroke-width:4;stroke-miterlimit:10;}
	.st8{fill:#4C5D5F;stroke:#231F20;stroke-width:4;stroke-miterlimit:10;}
</style>
<g>
	<defs>
		<rect id="SVGID_1_" x="19.36" y="88.82" width="349.64" height="92.48"/>
	</defs>
	<clipPath id="SVGID_00000163038731381493455100000012183542352866599342_">
		<use xlink:href="#SVGID_1_"  style="overflow:visible;"/>
	</clipPath>
	
		<rect x="19.36" y="88.91" style="clip-path:url(#SVGID_00000163038731381493455100000012183542352866599342_);fill:#9FBEC9;stroke:#231F20;stroke-width:0.9;stroke-miterlimit:10;" width="349.64" height="92.48"/>
	<g style="clip-path:url(#SVGID_00000163038731381493455100000012183542352866599342_);">
		<g>
			<line class="st2" x1="103.66" y1="80.23" x2="135" y2="185"/>
			
				<rect x="117.33" y="77.94" transform="matrix(0.9581 -0.2865 0.2865 0.9581 -32.9965 39.7524)" class="st3" width="4" height="109.35"/>
		</g>
		<g>
			<line class="st2" x1="135" y1="87.48" x2="167.17" y2="185"/>
			
				<rect x="149.08" y="84.9" transform="matrix(0.9497 -0.3133 0.3133 0.9497 -35.0776 54.1898)" class="st3" width="4" height="102.69"/>
		</g>
		<g>
			<line class="st2" x1="167.17" y1="87.48" x2="198.62" y2="185"/>
			
				<rect x="180.89" y="85.01" transform="matrix(0.9517 -0.307 0.307 0.9517 -32.9937 62.7246)" class="st3" width="4" height="102.47"/>
		</g>
		<g>
			<line class="st2" x1="198.62" y1="87.48" x2="231.51" y2="185"/>
			
				<rect x="213.07" y="84.79" transform="matrix(0.9476 -0.3195 0.3195 0.9476 -32.2602 75.8653)" class="st3" width="4" height="102.92"/>
		</g>
		<g>
			<line class="st2" x1="229.47" y1="85.31" x2="262.36" y2="182.83"/>
			
				<rect x="243.91" y="82.61" transform="matrix(0.9476 -0.3195 0.3195 0.9476 -29.9467 85.6086)" class="st3" width="4" height="102.92"/>
		</g>
		<g>
			<line class="st2" x1="261.44" y1="85.31" x2="294.32" y2="182.83"/>
			
				<rect x="275.88" y="82.61" transform="matrix(0.9476 -0.3195 0.3195 0.9476 -28.2707 95.8233)" class="st3" width="4" height="102.92"/>
		</g>
		<g>
			<line class="st2" x1="294.32" y1="85.31" x2="327.21" y2="182.83"/>
			
				<rect x="308.77" y="82.61" transform="matrix(0.9476 -0.3195 0.3195 0.9476 -26.5466 106.3318)" class="st3" width="4" height="102.92"/>
		</g>
		<g>
			<line class="st2" x1="327.21" y1="87.48" x2="360.09" y2="185"/>
			
				<rect x="341.65" y="84.79" transform="matrix(0.9476 -0.3195 0.3195 0.9476 -25.5186 116.9544)" class="st3" width="4" height="102.92"/>
		</g>
		<g>
			<line class="st2" x1="353.06" y1="88.45" x2="368.44" y2="134.07"/>
			
				<rect x="358.75" y="87.18" transform="matrix(0.9476 -0.3195 0.3195 0.9476 -16.6375 121.1075)" class="st3" width="4" height="48.14"/>
		</g>
		<g>
			<line class="st2" x1="72.26" y1="83.86" x2="103.6" y2="188.63"/>
			
				<rect x="85.93" y="81.57" transform="matrix(0.9581 -0.2865 0.2865 0.9581 -35.3518 30.9072)" class="st3" width="4" height="109.35"/>
		</g>
		<g>
			<line class="st2" x1="40.53" y1="85.31" x2="71.86" y2="190.07"/>
			
				<rect x="54.2" y="83.01" transform="matrix(0.9581 -0.2865 0.2865 0.9581 -37.0967 21.8757)" class="st3" width="4" height="109.35"/>
		</g>
		<g>
			<line class="st2" x1="9.87" y1="91.41" x2="41.2" y2="196.18"/>
			
				<rect x="23.53" y="89.12" transform="matrix(0.9581 -0.2865 0.2865 0.9581 -40.1315 13.346)" class="st3" width="4" height="109.35"/>
		</g>
	</g>
	
		<rect x="19.36" y="88.91" style="clip-path:url(#SVGID_00000163038731381493455100000012183542352866599342_);fill:none;" width="349.64" height="92.48"/>
</g>
<path class="st5" d="M369,76.18"/>
<path class="st6" d="M88.84,198.22"/>
<rect x="19.36" y="88.82" class="st7" width="349.64" height="92.48"/>
<path class="st8" d="M481.57,195.17h-45.22c-6.11,0-11.07-4.96-11.07-11.07V84.2c0-6.11,4.96-11.07,11.07-11.07h45.22
	c6.11,0,11.07,4.96,11.07,11.07v99.9C492.64,190.22,487.68,195.17,481.57,195.17z"/>
<path class="st8" d="M417.73,185.13h-41.17c-4.17,0-7.56-3.38-7.56-7.56V90.72c0-4.17,3.38-7.56,7.56-7.56h41.17
	c4.17,0,7.56,3.38,7.56,7.56v86.86C425.28,181.75,421.9,185.13,417.73,185.13z"/>
</svg>