<?xml version="1.0" encoding="utf-8"?>
<!-- Generator: Adobe Illustrator 25.4.1, SVG Export Plug-In . SVG Version: 6.00 Build 0)  -->
<svg version="1.1" id="Camada_1" xmlns="http://www.w3.org/2000/svg" xmlns:xlink="http://www.w3.org/1999/xlink" x="0px" y="0px"
	 viewBox="0 0 2052 256" style="enable-background:new 0 0 2052 256;" xml:space="preserve">
<style type="text/css">
	.st0{fill:#4B5D5F;stroke:#000000;stroke-width:4;stroke-miterlimit:10;}
	.st1{fill:#9FBEC9;stroke:#231F20;stroke-width:4;stroke-miterlimit:10;}
	.st2{fill:none;stroke:#231F20;stroke-width:1.5;stroke-miterlimit:10;}
	.st3{fill:#AAFF48;stroke:#231F20;stroke-width:2;stroke-miterlimit:10;}
	.st4{fill:#AAFF48;stroke:#231F20;stroke-width:3;stroke-miterlimit:10;}
	.st5{fill:none;stroke:#221F1F;stroke-width:4;stroke-miterlimit:10;}
	.st6{fill:none;stroke:#000000;stroke-width:4;stroke-miterlimit:10;}
	.st7{fill:#AAFF48;stroke:#000000;stroke-width:4;stroke-miterlimit:10;}
	.st8{fill:#4B5D5F;stroke:#000000;stroke-width:2;stroke-miterlimit:10;}
	.st9{fill:#9FBEC9;stroke:#000000;stroke-width:2;stroke-miterlimit:10;}
</style>
<g>
	<path class="st0" d="M1241.64,157.03v-37.21c0-1.79,1.45-3.23,3.23-3.23l11.06,0c1.79,0,3.23,1.45,3.23,3.23v37.21
		c0,1.79-1.45,3.23-3.23,3.23h-11.06C1243.09,160.26,1241.64,158.81,1241.64,157.03z"/>
	<path class="st0" d="M1259.17,154.27v-31.69c0-1.79,1.45-3.23,3.23-3.23l11.06,0c1.79,0,3.23,1.45,3.23,3.23v31.69
		c0,1.79-1.45,3.23-3.23,3.23l-11.06,0C1260.62,157.5,1259.17,156.06,1259.17,154.27z"/>
	<rect x="1276.7" y="124.03" class="st1" width="357.25" height="28.79"/>
	<g>
		<circle class="st2" cx="50.86" cy="120.98" r="28.07"/>
		<circle class="st2" cx="49.03" cy="125.92" r="23.13"/>
		<circle class="st2" cx="48.07" cy="128.5" r="20.55"/>
		<circle class="st3" cx="48.07" cy="128.5" r="5.58"/>
		<line class="st2" x1="23.16" y1="116.47" x2="27.06" y2="118.69"/>
		<line class="st2" x1="25.11" y1="109.8" x2="29.21" y2="114.03"/>
		<line class="st2" x1="28.28" y1="104.6" x2="31.52" y2="111.29"/>
		<line class="st2" x1="32.25" y1="99.98" x2="34.48" y2="107.94"/>
		<path class="st2" d="M36.36,96.94"/>
		<line class="st2" x1="37.58" y1="96.94" x2="38.45" y2="105.36"/>
		<line class="st2" x1="43.86" y1="93.79" x2="43.86" y2="103.38"/>
		<line class="st2" x1="50.86" y1="92.91" x2="50.01" y2="102.79"/>
		<line class="st2" x1="57.87" y1="93.79" x2="56.29" y2="103.96"/>
		<line class="st2" x1="65.37" y1="96.94" x2="61.19" y2="106.26"/>
		<line class="st2" x1="65.37" y1="109.55" x2="72.15" y2="102.7"/>
		<line class="st2" x1="68.76" y1="113.89" x2="76.62" y2="109.8"/>
		<line class="st2" x1="71.27" y1="119.59" x2="78.93" y2="118.69"/>
		<line class="st2" x1="72.15" y1="125.92" x2="78.5" y2="125.92"/>
		<line class="st2" x1="71.68" y1="130.58" x2="76.62" y2="132.15"/>
		<line class="st2" x1="70.18" y1="135.25" x2="72.69" y2="138.62"/>
	</g>
	<circle class="st4" cx="208.36" cy="162.87" r="7.46"/>
	<circle class="st4" cx="728.32" cy="91.41" r="7.46"/>
	<circle class="st4" cx="774.65" cy="45.33" r="7.46"/>
	<polyline class="st5" points="163.78,160.16 6.8,160.16 6.8,79.39 698.11,79.39 767.19,49.27 	"/>
	<path class="st0" d="M1667.64,157.03v-37.21c0-1.79-1.45-3.23-3.23-3.23l-10.38,0c-1.79,0-3.23,1.45-3.23,3.23v37.21
		c0,1.79,1.45,3.23,3.23,3.23h10.38C1666.2,160.26,1667.64,158.81,1667.64,157.03z"/>
	<path class="st0" d="M1650.8,154.27v-31.69c0-1.79-1.45-3.23-3.23-3.23h-10.38c-1.79,0-3.23,1.45-3.23,3.23v31.69
		c0,1.79,1.45,3.23,3.23,3.23h10.38C1649.35,157.5,1650.8,156.06,1650.8,154.27z"/>
	<polyline class="st5" points="733.61,89.42 802.35,57.28 1140.92,57.28 1156.7,87.1 1241.64,87.1 1241.64,179.36 280.53,179.36 
		215,164.83 	"/>
	<circle class="st4" cx="171.05" cy="160.16" r="7.46"/>
	<polyline class="st6" points="1685.47,143.09 1685.47,201.79 2031.08,201.79 2002.59,150.23 	"/>
	<circle class="st4" cx="1670.54" cy="169.93" r="7.46"/>
	<circle class="st4" cx="1685.45" cy="135.64" r="7.46"/>
	<circle class="st4" cx="1998.18" cy="143.09" r="7.46"/>
	<polyline class="st6" points="1670.54,162.48 1669.85,103.85 2002.16,103.85 2002.16,122.61 2033.31,181.77 	"/>
	<circle class="st4" cx="2038.54" cy="188.12" r="7.46"/>
	<polygon class="st7" points="1700.36,116.4 1700.36,189.19 2003.44,189.19 1984.32,152.79 1982.5,116.4 	"/>
	<line class="st6" x1="1282.79" y1="124.03" x2="1296.42" y2="152.82"/>
	<line class="st6" x1="1302.07" y1="124.03" x2="1315.7" y2="152.82"/>
	<line class="st6" x1="1320.28" y1="124.03" x2="1333.91" y2="152.82"/>
	<line class="st6" x1="1339.56" y1="124.03" x2="1353.19" y2="152.82"/>
	<line class="st6" x1="1362.05" y1="124.03" x2="1375.68" y2="152.82"/>
	<line class="st6" x1="1381.33" y1="124.03" x2="1394.96" y2="152.82"/>
	<line class="st6" x1="1399.54" y1="124.03" x2="1413.17" y2="152.82"/>
	<line class="st6" x1="1418.82" y1="124.03" x2="1432.45" y2="152.82"/>
	<line class="st6" x1="1439.17" y1="124.03" x2="1452.8" y2="152.82"/>
	<line class="st6" x1="1458.45" y1="124.03" x2="1472.08" y2="152.82"/>
	<line class="st6" x1="1476.66" y1="124.03" x2="1490.29" y2="152.82"/>
	<line class="st6" x1="1495.94" y1="124.03" x2="1509.57" y2="152.82"/>
	<line class="st6" x1="1517.36" y1="124.03" x2="1530.99" y2="152.82"/>
	<line class="st6" x1="1536.64" y1="124.03" x2="1550.27" y2="152.82"/>
	<line class="st6" x1="1554.85" y1="124.03" x2="1568.48" y2="152.82"/>
	<line class="st6" x1="1574.13" y1="124.03" x2="1587.76" y2="152.82"/>
	<line class="st6" x1="1594.48" y1="124.03" x2="1608.11" y2="152.82"/>
	<line class="st6" x1="1613.76" y1="124.03" x2="1627.39" y2="152.82"/>
	<path class="st8" d="M1782.93,103.85h-27.9c-1.34,0-2.43-1.09-2.43-2.43v-7.78c0-1.34,1.09-2.43,2.43-2.43h27.9
		c1.34,0,2.43,1.09,2.43,2.43v7.78C1785.36,102.77,1784.27,103.85,1782.93,103.85z"/>
	<path class="st8" d="M1780.86,91.22h-23.77c-1.34,0-2.43-1.09-2.43-2.43v-7.78c0-1.34,1.09-2.43,2.43-2.43h23.77
		c1.34,0,2.43,1.09,2.43,2.43v7.78C1783.29,90.13,1782.2,91.22,1780.86,91.22z"/>
	<g>
		<path class="st9" d="M1842.25,30.7c-55.65-4.1-63.13,47.88-63.13,47.88h-19.49c0,0,3.06-48.17,52.09-64.45
			c0,0,46.66-16.81,80.16,23.39c0,0,20.75,19.85,20.3,66.32h-16.94C1895.22,103.85,1896.25,34.68,1842.25,30.7z"/>
		<line class="st6" x1="1762" y1="66.33" x2="1781.11" y2="70.68"/>
		<line class="st6" x1="1766.6" y1="53.46" x2="1785.08" y2="59.98"/>
		<line class="st6" x1="1775.17" y1="40.11" x2="1792.08" y2="50.03"/>
		<line class="st6" x1="1785.9" y1="27.92" x2="1798.49" y2="42.95"/>
		<line class="st6" x1="1800.07" y1="18.94" x2="1807.89" y2="36.92"/>
		<line class="st6" x1="1815.19" y1="14.23" x2="1820.61" y2="33.07"/>
		<line class="st6" x1="1832.83" y1="10.63" x2="1832.97" y2="30.24"/>
		<line class="st6" x1="1906.4" y1="62.84" x2="1888.94" y2="68.5"/>
		<line class="st6" x1="1900.2" y1="48.6" x2="1884.07" y2="58.14"/>
		<line class="st6" x1="1890.52" y1="34.54" x2="1876.88" y2="48.63"/>
		<line class="st6" x1="1880.35" y1="25.5" x2="1867.77" y2="40.53"/>
		<line class="st6" x1="1866.18" y1="16.53" x2="1858.37" y2="34.51"/>
		<line class="st6" x1="1851.06" y1="11.81" x2="1845.64" y2="30.65"/>
		<line class="st6" x1="1892.69" y1="81.71" x2="1910.26" y2="79.32"/>
		<line class="st6" x1="1894.8" y1="95.9" x2="1912.38" y2="93.51"/>
	</g>
</g>
</svg>