<?xml version="1.0" encoding="utf-8"?>
<!-- Generator: Adobe Illustrator 25.4.1, SVG Export Plug-In . SVG Version: 6.00 Build 0)  -->
<svg version="1.1" id="Layer_1" xmlns="http://www.w3.org/2000/svg" xmlns:xlink="http://www.w3.org/1999/xlink" x="0px" y="0px"
	 viewBox="0 0 2048 2048" style="enable-background:new 0 0 2048 2048;" xml:space="preserve">
<style type="text/css">
	.st0{fill:#AAFF48;}
	.st1{fill:none;stroke:#231F20;stroke-width:6;stroke-miterlimit:10;}
	.st2{fill:#AAFF48;stroke:#231F20;stroke-width:6;stroke-miterlimit:10;}
	.st3{fill:#AAFF48;stroke:#231F20;stroke-width:4;stroke-miterlimit:10;}
</style>
<polygon class="st0" points="122.99,289.79 2012.82,289.79 2012.82,223.28 1878.18,36.42 1481.13,36.42 1371.81,140.66 
	218.79,139.38 "/>
<polyline class="st1" points="39.02,998.42 122.99,936.94 122.99,289.79 218.79,139.38 1321.41,133.35 1440.86,42.49 "/>
<polyline class="st1" points="122.99,970.59 48.24,1021.38 39.02,1720.93 146.4,1863.12 1909.87,1863.12 1984.98,1722.02 
	1984.98,962.59 "/>
<polyline class="st1" points="1377.43,133.05 1481.13,36.42 1878.18,36.42 2012.82,223.28 2012.82,1144.77 "/>
<polygon class="st2" points="1275.76,1863.12 1275.76,1943.2 1867.23,1943.2 1909.87,1863.12 "/>
<line class="st1" x1="218.96" y1="1901.79" x2="1275.76" y2="1904.53"/>
<circle class="st3" cx="133.34" cy="962.59" r="13.06"/>
<circle class="st3" cx="35.18" cy="1002.7" r="13.06"/>
<circle class="st3" cx="209.75" cy="1902.62" r="13.06"/>
<circle class="st3" cx="1984.98" cy="949.77" r="13.06"/>
<circle class="st3" cx="2012.82" cy="1157.6" r="13.06"/>
<circle class="st3" cx="1371.81" cy="140.66" r="13.06"/>
<circle class="st3" cx="1440.86" cy="42.49" r="13.06"/>
</svg>