<?xml version="1.0" encoding="utf-8"?>
<!-- Generator: Adobe Illustrator 26.0.1, SVG Export Plug-In . SVG Version: 6.00 Build 0)  -->
<svg version="1.1" id="Camada_1" xmlns="http://www.w3.org/2000/svg" xmlns:xlink="http://www.w3.org/1999/xlink" x="0px" y="0px"
	 viewBox="0 0 500 500" style="enable-background:new 0 0 500 500;" xml:space="preserve">
<style type="text/css">
	.st0{fill:#262424;}
</style>
<g>
	<g>
		<path class="st0" d="M208.3,191.3"/>
		<g>
			<path class="st0" d="M462.8,322.2"/>
		</g>
		<g>
			<polygon class="st0" points="206.8,272 187.7,283 168.4,271.9 187.7,260.7 			"/>
			<polygon class="st0" points="227.6,260 208.9,270.8 189.8,259.5 208.3,248.9 			"/>
			<polygon class="st0" points="167.7,297.2 167.4,297.1 167.4,273.7 186.7,284.8 186.7,307.5 			"/>
			<polygon class="st0" points="186.7,309.8 186.7,330.9 167.4,319.7 167.4,299.4 			"/>
			<polygon class="st0" points="188.8,311 207.2,320.9 207.2,342.7 188.8,332.1 			"/>
			<polygon class="st0" points="188.8,286 207.2,296.7 207.2,318.5 188.8,308.6 			"/>
			<path class="st0" d="M208.9,273.2l17.8,10.5c-8.3,4.9-16.4,9.8-18.5,11.1l-18.4-10.6L208.9,273.2z"/>
			<path class="st0" d="M227.7,285.6v23l-18.4,9.9v-21.8C214.7,293.4,221.4,289.3,227.7,285.6z"/>
			<path class="st0" d="M228.9,260.8l19,11c-1.9,0.9-6.6,3.4-19.1,10.8h0L211,272l18.3-10.6L228.9,260.8z"/>
			<polygon class="st0" points="227.7,311 227.7,332.1 209.3,342.7 209.3,320.9 			"/>
			<polygon class="st0" points="249.2,299.4 249.2,319.7 229.8,330.9 229.8,309.8 			"/>
			<path class="st0" d="M249.2,273.5V297l-0.3,0.2l-19,10.2v-23.1C239.1,278.8,247.3,274.2,249.2,273.5z"/>
		</g>
		<g>
			<polygon class="st0" points="206.8,272 187.7,283 168.4,271.9 187.7,260.7 			"/>
			<polygon class="st0" points="227.6,260 208.9,270.8 189.8,259.5 208.3,248.9 			"/>
			<polygon class="st0" points="167.7,297.2 167.4,297.1 167.4,273.7 186.7,284.8 186.7,307.5 			"/>
			<polygon class="st0" points="186.7,309.8 186.7,330.9 167.4,319.7 167.4,299.4 			"/>
			<polygon class="st0" points="188.8,311 207.2,320.9 207.2,342.7 188.8,332.1 			"/>
			<polygon class="st0" points="188.8,286 207.2,296.7 207.2,318.5 188.8,308.6 			"/>
			<path class="st0" d="M208.9,273.2l17.8,10.5c-8.3,4.9-16.4,9.8-18.5,11.1l-18.4-10.6L208.9,273.2z"/>
			<path class="st0" d="M227.7,285.6v23l-18.4,9.9v-21.8C214.7,293.4,221.4,289.3,227.7,285.6z"/>
			<path class="st0" d="M228.9,260.8l19,11c-1.9,0.9-6.6,3.4-19.1,10.8h0L211,272l18.3-10.6L228.9,260.8z"/>
			<polygon class="st0" points="227.7,311 227.7,332.1 209.3,342.7 209.3,320.9 			"/>
			<polygon class="st0" points="249.2,299.4 249.2,319.7 229.8,330.9 229.8,309.8 			"/>
			<path class="st0" d="M249.2,273.5V297l-0.3,0.2l-19,10.2v-23.1C239.1,278.8,247.3,274.2,249.2,273.5z"/>
		</g>
		<g>
			<polygon class="st0" points="208.4,191.3 290.9,246.3 375.9,196.6 285.7,145.6 			"/>
			<polygon class="st0" points="285.7,46.1 375.9,97 375.9,0 			"/>
			<polygon class="st0" points="285.7,145.6 375.9,196.6 375.9,97 330.8,121.3 			"/>
			<polygon class="st0" points="285.7,145.6 330.8,121.3 375.9,97 285.7,46.1 			"/>
			<polygon class="st0" points="115.7,246.2 208.4,191.3 208.3,191.3 			"/>
			<polygon class="st0" points="37.2,297.9 115.7,246.2 37.2,201.8 			"/>
			<polygon class="st0" points="206.6,101.1 208.3,191.3 208.4,191.3 285.7,145.6 			"/>
			<polygon class="st0" points="37.2,201.8 115.7,246.2 121.8,151.5 			"/>
		</g>
		<g>
			<polygon class="st0" points="206.6,101.1 121.8,151.5 208.3,191.3 			"/>
			<polygon class="st0" points="121.8,151.5 115.7,246.2 208.3,191.3 			"/>
		</g>
		<polygon class="st0" points="115.7,246.3 115.7,246.3 115.7,246.2 		"/>
		<polygon class="st0" points="115.7,246.3 37.2,297.9 115.7,353.1 		"/>
		<polygon class="st0" points="37.2,297.9 37.2,394.1 115.7,353.1 		"/>
		<g>
			<polygon class="st0" points="207.9,500 286.3,454.2 207.9,408.4 			"/>
			<polygon class="st0" points="290.9,353.1 286.3,454.2 375.9,401.9 			"/>
		</g>
		<polygon class="st0" points="115.7,353.1 121.7,446.5 123.4,447.6 207.9,408.4 		"/>
		<polygon class="st0" points="37.2,394.1 121.7,446.5 115.7,353.1 		"/>
		<polygon class="st0" points="123.4,447.6 207.9,500 207.9,408.4 		"/>
		<polygon class="st0" points="290.9,353.1 207.9,408.4 286.3,454.2 		"/>
	</g>
</g>
</svg>