<?xml version="1.0" encoding="utf-8"?>
<!-- Generator: Adobe Illustrator 26.0.1, SVG Export Plug-In . SVG Version: 6.00 Build 0)  -->
<svg version="1.1" id="Camada_1" xmlns="http://www.w3.org/2000/svg" xmlns:xlink="http://www.w3.org/1999/xlink" x="0px" y="0px"
	 viewBox="0 0 500 500" style="enable-background:new 0 0 500 500;" xml:space="preserve">
<style type="text/css">
	.st0{fill:#1D1D1B;stroke:#FFFFFF;stroke-width:0.6946;stroke-miterlimit:10;}
	.st1{fill:none;stroke:#EFEFEF;stroke-width:0.9273;stroke-linecap:round;stroke-linejoin:round;stroke-miterlimit:10;}
	.st2{fill:#C3CCB5;}
	.st3{fill:#92AF6C;}
	.st4{fill:#6B7D50;}
	.st5{fill:#484D45;}
	.st6{fill:#7CA44C;}
	.st7{fill:#ADCC61;}
	.st8{fill:#667259;}
	.st9{fill:#555950;}
	.st10{fill:#59733B;}
	.st11{fill:#8DA46E;}
	.st12{fill:#A8B19B;}
	.st13{fill:#EFF4DC;}
	.st14{fill:#E3EDD1;}
	.st15{fill:none;}
	.st16{fill:#333A2B;}
	.st17{fill:#5E6C54;}
	.st18{fill:#596840;}
	.st19{fill:#3B3F39;}
	.st20{fill:#262424;}
	.st21{fill:#FFFFFF;}
	.st22{fill:url(#SVGID_1_);}
	.st23{fill:url(#SVGID_00000039118179815016864380000008901729657125249423_);}
	.st24{fill:url(#SVGID_00000021115693081717106960000012274404986331570850_);}
	.st25{fill:url(#SVGID_00000029013525970783885490000007169762523958993063_);}
	.st26{fill:url(#SVGID_00000022524326842457322040000003728321327648021940_);}
	.st27{fill:url(#SVGID_00000140716823961242499800000007801713308375712165_);}
	.st28{fill:url(#SVGID_00000022556072366723627710000015466479107060646577_);}
	.st29{fill:url(#SVGID_00000155119004470913092690000002288212141981027762_);}
	.st30{fill:url(#SVGID_00000029736349042503915590000008954751073621299076_);}
	.st31{fill:url(#SVGID_00000005978589368206156060000002902905555203655565_);}
	.st32{fill:url(#SVGID_00000048482947401128468780000005115497455654907058_);}
	.st33{fill:url(#SVGID_00000104691262292733142740000005480166260623536809_);}
	.st34{fill:url(#SVGID_00000067947980486530908620000007478316657632672652_);}
	.st35{fill:url(#SVGID_00000126282182329271520570000000713511259881170316_);}
	.st36{fill:url(#SVGID_00000106832815092647810210000001711198846170607798_);}
	.st37{fill:url(#SVGID_00000106127529692089152080000015436504245656420518_);}
	.st38{fill:url(#SVGID_00000052106522644331724580000018090245238579554723_);}
	.st39{fill:url(#SVGID_00000119079266831231328190000002492746995267210389_);}
	.st40{fill:url(#SVGID_00000065792962381918350620000003044732252632179352_);}
	.st41{fill:url(#SVGID_00000045590903413775243920000010306874231483322016_);}
	.st42{fill:url(#SVGID_00000026846302592637958080000011433255442533560211_);}
	.st43{fill:url(#SVGID_00000067944669606757503100000006019606357913659016_);}
	.st44{fill:url(#SVGID_00000026860471112000728000000014593858878473950885_);}
	.st45{fill:url(#SVGID_00000179606036527550460880000013077799519276892325_);}
</style>
<g>
	<g>
		<g>
			<path d="M237.4,151.9"/>
			<g>
				<path class="st0" d="M314.6,191.7"/>
			</g>
			<g>
				<polygon class="st1" points="236.9,176.4 231.1,179.7 225.2,176.4 231.1,173 				"/>
				<polygon class="st1" points="243.2,172.8 237.5,176 231.7,172.6 237.3,169.4 				"/>
				<polygon class="st1" points="225,184.1 224.9,184 224.9,176.9 230.8,180.3 230.8,187.2 				"/>
				<polygon class="st1" points="230.8,187.9 230.8,194.3 224.9,190.9 224.9,184.7 				"/>
				<polygon class="st1" points="231.4,188.2 237,191.2 237,197.9 231.4,194.6 				"/>
				<polygon class="st1" points="231.4,180.7 237,183.9 237,190.5 231.4,187.5 				"/>
				<path class="st1" d="M237.5,176.8l5.4,3.2c-2.5,1.5-5,3-5.6,3.4l-5.6-3.2L237.5,176.8z"/>
				<path class="st1" d="M243.2,180.5v7l-5.6,3v-6.6C239.3,182.9,241.3,181.7,243.2,180.5z"/>
				<path class="st1" d="M243.6,173l5.8,3.3c-0.6,0.3-2,1-5.8,3.3h0l-5.4-3.2l5.6-3.2L243.6,173z"/>
				<polygon class="st1" points="243.2,188.2 243.2,194.6 237.6,197.9 237.6,191.2 				"/>
				<polygon class="st1" points="249.7,184.7 249.7,190.9 243.9,194.3 243.9,187.9 				"/>
				<path class="st1" d="M249.7,176.9v7.2l-0.1,0.1l-5.8,3.1v-7C246.7,178.5,249.2,177.1,249.7,176.9z"/>
			</g>
			<g>
				<polygon class="st2" points="236.9,176.4 231.1,179.7 225.2,176.4 231.1,173 				"/>
				<polygon class="st3" points="243.2,172.8 237.5,176 231.7,172.6 237.3,169.4 				"/>
				<polygon class="st4" points="225,184.1 224.9,184 224.9,176.9 230.8,180.3 230.8,187.2 				"/>
				<polygon class="st5" points="230.8,187.9 230.8,194.3 224.9,190.9 224.9,184.7 				"/>
				<polygon class="st6" points="231.4,188.2 237,191.2 237,197.9 231.4,194.6 				"/>
				<polygon class="st3" points="231.4,180.7 237,183.9 237,190.5 231.4,187.5 				"/>
				<path class="st7" d="M237.5,176.8l5.4,3.2c-2.5,1.5-5,3-5.6,3.4l-5.6-3.2L237.5,176.8z"/>
				<path class="st8" d="M243.2,180.5v7l-5.6,3v-6.6C239.3,182.9,241.3,181.7,243.2,180.5z"/>
				<path class="st9" d="M243.6,173l5.8,3.3c-0.6,0.3-2,1-5.8,3.3h0l-5.4-3.2l5.6-3.2L243.6,173z"/>
				<polygon class="st2" points="243.2,188.2 243.2,194.6 237.6,197.9 237.6,191.2 				"/>
				<polygon class="st10" points="249.7,184.7 249.7,190.9 243.9,194.3 243.9,187.9 				"/>
				<path class="st11" d="M249.7,176.9v7.2l-0.1,0.1l-5.8,3.1v-7C246.7,178.5,249.2,177.1,249.7,176.9z"/>
			</g>
			<g>
				<polygon class="st12" points="237.4,151.9 262.4,168.6 288.2,153.5 260.8,138 				"/>
				<polygon class="st13" points="260.8,107.8 288.2,123.3 288.2,93.8 				"/>
				<polygon class="st2" points="260.8,138 288.2,153.5 288.2,123.3 274.5,130.7 				"/>
				<polygon class="st14" points="260.8,138 274.5,130.7 288.2,123.3 260.8,107.8 				"/>
				<polygon class="st15" points="209.2,168.6 237.4,151.9 237.4,151.9 				"/>
				<polygon class="st4" points="185.4,184.3 209.2,168.6 185.4,155.1 				"/>
				<polygon class="st11" points="236.8,124.5 237.4,151.9 237.4,151.9 260.8,138 				"/>
				<polygon class="st6" points="185.4,155.1 209.2,168.6 211.1,139.8 				"/>
			</g>
			<g>
				<polygon class="st7" points="236.8,124.5 211.1,139.8 237.4,151.9 				"/>
				<polygon class="st3" points="211.1,139.8 209.2,168.6 237.4,151.9 				"/>
			</g>
			<polygon class="st10" points="209.2,168.6 209.2,168.6 209.2,168.6 			"/>
			<polygon class="st10" points="209.2,168.6 185.4,184.3 209.2,201 			"/>
			<polygon class="st8" points="185.4,184.3 185.4,213.5 209.2,201 			"/>
			<g>
				<polygon class="st5" points="237.2,245.6 261,231.7 237.2,217.8 				"/>
				<polygon class="st16" points="262.4,201 261,231.7 288.2,215.8 				"/>
			</g>
			<polygon class="st17" points="209.2,201 211.3,229.6 237.2,217.8 			"/>
			<polygon class="st18" points="185.4,213.5 211.3,229.6 209.2,201 			"/>
			<polygon class="st9" points="211.3,229.6 237.2,245.6 237.2,217.8 			"/>
			<polygon class="st19" points="262.4,201 237.2,217.8 261,231.7 			"/>
		</g>
		<g>
			<g>
				<path class="st20" d="M121.4,312.7H118v-43.7h3.4V312.7z M147.8,275.1c4.2,4,6.3,9.3,6.3,15.7c0,6.4-2.1,11.6-6.3,15.8
					c-4.2,4.1-10,6.2-17.4,6.2h-5.4v-3.1h5.4c6.3,0,11.3-1.8,14.8-5.3s5.4-8,5.4-13.5c0-5.5-1.8-10-5.4-13.4
					c-3.6-3.5-8.5-5.2-14.8-5.2h-5.4v-3.1h5.4C137.8,269.1,143.6,271.1,147.8,275.1z"/>
				<path class="st20" d="M226.3,272.4l-18.8,26.7h-1.3l-18.9-26.7v-4h1.3l18.1,26l18.2-26h1.3V272.4z M190.8,283.1v29.7h-3.4v-34.4
					L190.8,283.1z M226.3,312.7h-3.4v-29.7l3.4-4.8V312.7z"/>
				<path class="st20" d="M241.7,269.1h3.4v43.7h-3.4V269.1z"/>
				<path class="st20" d="M260.4,272v-3.6h1.3l32.4,41.3v3.7h-1.4L260.4,272z M260.4,277.7l3.4,4.3v30.8h-3.4V277.7z M290.7,299.8
					v-30.8h3.4v35L290.7,299.8z"/>
				<path class="st20" d="M309.5,269.1h27.3v3.1H313v37.5h24.7v3.1h-28.1V269.1z M316.4,287.6h15.2v3h-15.2V287.6z"/>
				<path class="st20" d="M349.2,269.1H364c4.1,0,7.3,1.1,9.7,3.4c2.4,2.3,3.6,5.1,3.6,8.6c0,3.6-1.2,6.5-3.5,8.7
					c-2.4,2.3-5.6,3.4-9.7,3.4h-7.9V290h7.9c3.1,0,5.5-0.8,7.2-2.5c1.7-1.7,2.5-3.8,2.5-6.5c0-2.6-0.8-4.7-2.5-6.4
					c-1.7-1.7-4.1-2.5-7.2-2.5h-11.3v40.6h-3.4V269.1z M365.8,296.5l3.8-0.5l12.4,16.7h-4L365.8,296.5z"/>
			</g>
			<circle class="st20" cx="167.4" cy="290.6" r="4.6"/>
		</g>
	</g>
	<g>
		<path class="st21" d="M0,337.3h10.9V405H0V337.3z"/>
		<path class="st21" d="M31.6,347.3v-11.1h3.8l52,58.8v11.2h-3.7L31.6,347.3z M31.6,354.6l10.9,12V405H31.6V354.6z M76.5,375.8
			v-38.5h10.9v50.3L76.5,375.8z"/>
		<path class="st21" d="M101.3,337.3h56.5v9.7h-56.5V337.3z M124.1,351.8H135V405h-10.9V351.8z"/>
		<path class="st21" d="M171.7,337.3h24.7c6.8,0,12.4,1.9,16.6,5.7c4.2,3.8,6.4,8.8,6.4,15c0,6.2-2.1,11.2-6.4,15
			c-4.2,3.9-9.8,5.8-16.6,5.8h-9.1v-9.6h9c3.8,0,6.7-1,8.8-3.1c2.1-2.1,3.1-4.7,3.1-8c0-3.4-1-6.1-3.1-8.1c-2.1-2.1-5-3.1-8.8-3.1
			h-13.7V405h-10.9V337.3z M198.5,383.6l11-2.2l17.2,23.6h-12.4L198.5,383.6z"/>
		<path class="st21" d="M257.2,351l5.6,13.2l-8.6,20.2h17.3l4.1,9.3h-25.4l-4.8,11.3h-11.6L257.2,351z M259.8,344.9l3.9-8.7h3.7
			l29.8,68.8h-11.7L259.8,344.9z"/>
		<path class="st21" d="M311.7,347.3v-11.1h3.8l52,58.8v11.2h-3.7L311.7,347.3z M311.7,354.6l10.9,12V405h-10.9V354.6z M356.6,375.8
			v-38.5h10.9v50.3L356.6,375.8z"/>
		<path class="st21" d="M388.3,337.3h44.5v9.7h-33.6v48.2h34.9v9.7h-45.7V337.3z M403.9,364.5h20.6v9.2h-20.6V364.5z"/>
		<path class="st21" d="M443.5,337.3H500v9.7h-56.5V337.3z M466.3,351.8h10.9V405h-10.9V351.8z"/>
	</g>
	<g>
		<linearGradient id="SVGID_1_" gradientUnits="userSpaceOnUse" x1="5.0477" y1="338.5503" x2="5.8836" y2="408.766">
			<stop  offset="0" style="stop-color:#F9FAF8;stop-opacity:0"/>
			<stop  offset="0.1266" style="stop-color:#D8E4CD;stop-opacity:0.2109"/>
			<stop  offset="0.2761" style="stop-color:#B5CEA1;stop-opacity:0.4599"/>
			<stop  offset="0.4103" style="stop-color:#9DBD81;stop-opacity:0.6834"/>
			<stop  offset="0.523" style="stop-color:#8DB46E;stop-opacity:0.8711"/>
			<stop  offset="0.6004" style="stop-color:#88B067"/>
		</linearGradient>
		<path class="st22" d="M0,337.3h10.9V405H0V337.3z"/>
		
			<linearGradient id="SVGID_00000159446319887767100470000010758646986189635758_" gradientUnits="userSpaceOnUse" x1="59.0912" y1="337.9069" x2="59.9271" y2="408.1226">
			<stop  offset="0" style="stop-color:#F9FAF8;stop-opacity:0"/>
			<stop  offset="0.1266" style="stop-color:#D8E4CD;stop-opacity:0.2109"/>
			<stop  offset="0.2761" style="stop-color:#B5CEA1;stop-opacity:0.4599"/>
			<stop  offset="0.4103" style="stop-color:#9DBD81;stop-opacity:0.6834"/>
			<stop  offset="0.523" style="stop-color:#8DB46E;stop-opacity:0.8711"/>
			<stop  offset="0.6004" style="stop-color:#88B067"/>
		</linearGradient>
		<path style="fill:url(#SVGID_00000159446319887767100470000010758646986189635758_);" d="M31.6,347.3v-11.1h3.8l52,58.8v11.2h-3.7
			L31.6,347.3z M31.6,354.6l10.9,12V405H31.6V354.6z M76.5,375.8v-38.5h10.9v50.3L76.5,375.8z"/>
		
			<linearGradient id="SVGID_00000070084704902795584390000014578811362440781733_" gradientUnits="userSpaceOnUse" x1="129.5283" y1="337.002" x2="130.3642" y2="407.2177">
			<stop  offset="0" style="stop-color:#F9FAF8;stop-opacity:0"/>
			<stop  offset="0.1266" style="stop-color:#D8E4CD;stop-opacity:0.2109"/>
			<stop  offset="0.2761" style="stop-color:#B5CEA1;stop-opacity:0.4599"/>
			<stop  offset="0.4103" style="stop-color:#9DBD81;stop-opacity:0.6834"/>
			<stop  offset="0.523" style="stop-color:#8DB46E;stop-opacity:0.8711"/>
			<stop  offset="0.6004" style="stop-color:#88B067"/>
		</linearGradient>
		<path style="fill:url(#SVGID_00000070084704902795584390000014578811362440781733_);" d="M101.3,337.3h56.5v9.7h-56.5V337.3z
			 M124.1,351.8H135V405h-10.9V351.8z"/>
		
			<linearGradient id="SVGID_00000126305615097211871130000002392399741671297423_" gradientUnits="userSpaceOnUse" x1="198.3608" y1="336.2489" x2="199.1967" y2="406.4646">
			<stop  offset="0" style="stop-color:#F9FAF8;stop-opacity:0"/>
			<stop  offset="0.1266" style="stop-color:#D8E4CD;stop-opacity:0.2109"/>
			<stop  offset="0.2761" style="stop-color:#B5CEA1;stop-opacity:0.4599"/>
			<stop  offset="0.4103" style="stop-color:#9DBD81;stop-opacity:0.6834"/>
			<stop  offset="0.523" style="stop-color:#8DB46E;stop-opacity:0.8711"/>
			<stop  offset="0.6004" style="stop-color:#88B067"/>
		</linearGradient>
		<path style="fill:url(#SVGID_00000126305615097211871130000002392399741671297423_);" d="M171.7,337.3h24.7
			c6.8,0,12.4,1.9,16.6,5.7c4.2,3.8,6.4,8.8,6.4,15c0,6.2-2.1,11.2-6.4,15c-4.2,3.9-9.8,5.8-16.6,5.8h-9.1v-9.6h9
			c3.8,0,6.7-1,8.8-3.1c2.1-2.1,3.1-4.7,3.1-8c0-3.4-1-6.1-3.1-8.1c-2.1-2.1-5-3.1-8.8-3.1h-13.7V405h-10.9V337.3z M198.5,383.6
			l11-2.2l17.2,23.6h-12.4L198.5,383.6z"/>
		
			<linearGradient id="SVGID_00000157992578156844624420000000714659920349410981_" gradientUnits="userSpaceOnUse" x1="264.7107" y1="335.459" x2="265.5466" y2="405.6747">
			<stop  offset="0" style="stop-color:#F9FAF8;stop-opacity:0"/>
			<stop  offset="0.1266" style="stop-color:#D8E4CD;stop-opacity:0.2109"/>
			<stop  offset="0.2761" style="stop-color:#B5CEA1;stop-opacity:0.4599"/>
			<stop  offset="0.4103" style="stop-color:#9DBD81;stop-opacity:0.6834"/>
			<stop  offset="0.523" style="stop-color:#8DB46E;stop-opacity:0.8711"/>
			<stop  offset="0.6004" style="stop-color:#88B067"/>
		</linearGradient>
		<path style="fill:url(#SVGID_00000157992578156844624420000000714659920349410981_);" d="M257.2,351l5.6,13.2l-8.6,20.2h17.3
			l4.1,9.3h-25.4l-4.8,11.3h-11.6L257.2,351z M259.8,344.9l3.9-8.7h3.7l29.8,68.8h-11.7L259.8,344.9z"/>
		
			<linearGradient id="SVGID_00000165230124104081714290000008310650724815622298_" gradientUnits="userSpaceOnUse" x1="339.1537" y1="334.5728" x2="339.9897" y2="404.7885">
			<stop  offset="0" style="stop-color:#F9FAF8;stop-opacity:0"/>
			<stop  offset="0.1266" style="stop-color:#D8E4CD;stop-opacity:0.2109"/>
			<stop  offset="0.2761" style="stop-color:#B5CEA1;stop-opacity:0.4599"/>
			<stop  offset="0.4103" style="stop-color:#9DBD81;stop-opacity:0.6834"/>
			<stop  offset="0.523" style="stop-color:#8DB46E;stop-opacity:0.8711"/>
			<stop  offset="0.6004" style="stop-color:#88B067"/>
		</linearGradient>
		<path style="fill:url(#SVGID_00000165230124104081714290000008310650724815622298_);" d="M311.7,347.3v-11.1h3.8l52,58.8v11.2
			h-3.7L311.7,347.3z M311.7,354.6l10.9,12V405h-10.9V354.6z M356.6,375.8v-38.5h10.9v50.3L356.6,375.8z"/>
		
			<linearGradient id="SVGID_00000002373571974997553880000007215598320812891537_" gradientUnits="userSpaceOnUse" x1="410.3891" y1="333.7248" x2="411.225" y2="403.9405">
			<stop  offset="0" style="stop-color:#F9FAF8;stop-opacity:0"/>
			<stop  offset="0.1266" style="stop-color:#D8E4CD;stop-opacity:0.2109"/>
			<stop  offset="0.2761" style="stop-color:#B5CEA1;stop-opacity:0.4599"/>
			<stop  offset="0.4103" style="stop-color:#9DBD81;stop-opacity:0.6834"/>
			<stop  offset="0.523" style="stop-color:#8DB46E;stop-opacity:0.8711"/>
			<stop  offset="0.6004" style="stop-color:#88B067"/>
		</linearGradient>
		<path style="fill:url(#SVGID_00000002373571974997553880000007215598320812891537_);" d="M388.3,337.3h44.5v9.7h-33.6v48.2h34.9
			v9.7h-45.7V337.3z M403.9,364.5h20.6v9.2h-20.6V364.5z"/>
		
			<linearGradient id="SVGID_00000089550190109127173350000018012352570122615967_" gradientUnits="userSpaceOnUse" x1="471.6327" y1="332.9957" x2="472.4686" y2="403.2114">
			<stop  offset="0" style="stop-color:#F9FAF8;stop-opacity:0"/>
			<stop  offset="0.1266" style="stop-color:#D8E4CD;stop-opacity:0.2109"/>
			<stop  offset="0.2761" style="stop-color:#B5CEA1;stop-opacity:0.4599"/>
			<stop  offset="0.4103" style="stop-color:#9DBD81;stop-opacity:0.6834"/>
			<stop  offset="0.523" style="stop-color:#8DB46E;stop-opacity:0.8711"/>
			<stop  offset="0.6004" style="stop-color:#88B067"/>
		</linearGradient>
		<path style="fill:url(#SVGID_00000089550190109127173350000018012352570122615967_);" d="M443.5,337.3H500v9.7h-56.5V337.3z
			 M466.3,351.8h10.9V405h-10.9V351.8z"/>
	</g>
	<g>
		
			<linearGradient id="SVGID_00000026156254828624911030000004368486291265566645_" gradientUnits="userSpaceOnUse" x1="5.0477" y1="338.5503" x2="5.8836" y2="408.766">
			<stop  offset="0.137" style="stop-color:#5D714F"/>
			<stop  offset="0.5386" style="stop-color:#F9FAF8;stop-opacity:0"/>
		</linearGradient>
		<path style="fill:url(#SVGID_00000026156254828624911030000004368486291265566645_);" d="M0,337.3h10.9V405H0V337.3z"/>
		
			<linearGradient id="SVGID_00000116209232843772065290000004632526361499473580_" gradientUnits="userSpaceOnUse" x1="59.0912" y1="337.9069" x2="59.9271" y2="408.1226">
			<stop  offset="0.137" style="stop-color:#5D714F"/>
			<stop  offset="0.5386" style="stop-color:#F9FAF8;stop-opacity:0"/>
		</linearGradient>
		<path style="fill:url(#SVGID_00000116209232843772065290000004632526361499473580_);" d="M31.6,347.3v-11.1h3.8l52,58.8v11.2h-3.7
			L31.6,347.3z M31.6,354.6l10.9,12V405H31.6V354.6z M76.5,375.8v-38.5h10.9v50.3L76.5,375.8z"/>
		
			<linearGradient id="SVGID_00000023998467939907561730000010399792852270905278_" gradientUnits="userSpaceOnUse" x1="129.5283" y1="337.002" x2="130.3642" y2="407.2177">
			<stop  offset="0.137" style="stop-color:#5D714F"/>
			<stop  offset="0.5386" style="stop-color:#F9FAF8;stop-opacity:0"/>
		</linearGradient>
		<path style="fill:url(#SVGID_00000023998467939907561730000010399792852270905278_);" d="M101.3,337.3h56.5v9.7h-56.5V337.3z
			 M124.1,351.8H135V405h-10.9V351.8z"/>
		
			<linearGradient id="SVGID_00000006675916609442643430000013014722895794605968_" gradientUnits="userSpaceOnUse" x1="198.3608" y1="336.2489" x2="199.1967" y2="406.4646">
			<stop  offset="0.137" style="stop-color:#5D714F"/>
			<stop  offset="0.5386" style="stop-color:#F9FAF8;stop-opacity:0"/>
		</linearGradient>
		<path style="fill:url(#SVGID_00000006675916609442643430000013014722895794605968_);" d="M171.7,337.3h24.7
			c6.8,0,12.4,1.9,16.6,5.7c4.2,3.8,6.4,8.8,6.4,15c0,6.2-2.1,11.2-6.4,15c-4.2,3.9-9.8,5.8-16.6,5.8h-9.1v-9.6h9
			c3.8,0,6.7-1,8.8-3.1c2.1-2.1,3.1-4.7,3.1-8c0-3.4-1-6.1-3.1-8.1c-2.1-2.1-5-3.1-8.8-3.1h-13.7V405h-10.9V337.3z M198.5,383.6
			l11-2.2l17.2,23.6h-12.4L198.5,383.6z"/>
		
			<linearGradient id="SVGID_00000167390507919536229670000017261770346511238035_" gradientUnits="userSpaceOnUse" x1="264.7107" y1="335.459" x2="265.5466" y2="405.6747">
			<stop  offset="0.137" style="stop-color:#5D714F"/>
			<stop  offset="0.5386" style="stop-color:#F9FAF8;stop-opacity:0"/>
		</linearGradient>
		<path style="fill:url(#SVGID_00000167390507919536229670000017261770346511238035_);" d="M257.2,351l5.6,13.2l-8.6,20.2h17.3
			l4.1,9.3h-25.4l-4.8,11.3h-11.6L257.2,351z M259.8,344.9l3.9-8.7h3.7l29.8,68.8h-11.7L259.8,344.9z"/>
		
			<linearGradient id="SVGID_00000104702998762963775080000008613497811609211583_" gradientUnits="userSpaceOnUse" x1="339.1537" y1="334.5728" x2="339.9897" y2="404.7885">
			<stop  offset="0.137" style="stop-color:#5D714F"/>
			<stop  offset="0.5386" style="stop-color:#F9FAF8;stop-opacity:0"/>
		</linearGradient>
		<path style="fill:url(#SVGID_00000104702998762963775080000008613497811609211583_);" d="M311.7,347.3v-11.1h3.8l52,58.8v11.2
			h-3.7L311.7,347.3z M311.7,354.6l10.9,12V405h-10.9V354.6z M356.6,375.8v-38.5h10.9v50.3L356.6,375.8z"/>
		
			<linearGradient id="SVGID_00000014613091297691040190000009460875842576588960_" gradientUnits="userSpaceOnUse" x1="410.3891" y1="333.7248" x2="411.225" y2="403.9405">
			<stop  offset="0.137" style="stop-color:#5D714F"/>
			<stop  offset="0.5386" style="stop-color:#F9FAF8;stop-opacity:0"/>
		</linearGradient>
		<path style="fill:url(#SVGID_00000014613091297691040190000009460875842576588960_);" d="M388.3,337.3h44.5v9.7h-33.6v48.2h34.9
			v9.7h-45.7V337.3z M403.9,364.5h20.6v9.2h-20.6V364.5z"/>
		
			<linearGradient id="SVGID_00000031925033126088098030000013548918316119998638_" gradientUnits="userSpaceOnUse" x1="471.6327" y1="332.9957" x2="472.4686" y2="403.2114">
			<stop  offset="0.137" style="stop-color:#5D714F"/>
			<stop  offset="0.5386" style="stop-color:#F9FAF8;stop-opacity:0"/>
		</linearGradient>
		<path style="fill:url(#SVGID_00000031925033126088098030000013548918316119998638_);" d="M443.5,337.3H500v9.7h-56.5V337.3z
			 M466.3,351.8h10.9V405h-10.9V351.8z"/>
	</g>
	<g>
		
			<linearGradient id="SVGID_00000170268009571101979710000017801086076886406039_" gradientUnits="userSpaceOnUse" x1="4.8263" y1="400.2163" x2="6.2195" y2="333.9015">
			<stop  offset="4.347227e-02" style="stop-color:#596840"/>
			<stop  offset="4.715854e-02" style="stop-color:#5A6940;stop-opacity:0.9961"/>
			<stop  offset="0.131" style="stop-color:#667F45;stop-opacity:0.9085"/>
			<stop  offset="0.2293" style="stop-color:#709048;stop-opacity:0.8058"/>
			<stop  offset="0.3516" style="stop-color:#779B4A;stop-opacity:0.6778"/>
			<stop  offset="0.5233" style="stop-color:#7BA24C;stop-opacity:0.4984"/>
			<stop  offset="1" style="stop-color:#7CA44C;stop-opacity:0"/>
		</linearGradient>
		<path style="fill:url(#SVGID_00000170268009571101979710000017801086076886406039_);" d="M0,337.3h10.9V405H0V337.3z"/>
		
			<linearGradient id="SVGID_00000096017845786691147350000003429988904597487243_" gradientUnits="userSpaceOnUse" x1="58.8536" y1="401.3513" x2="60.2468" y2="335.0365">
			<stop  offset="4.347227e-02" style="stop-color:#596840"/>
			<stop  offset="4.715854e-02" style="stop-color:#5A6940;stop-opacity:0.9961"/>
			<stop  offset="0.131" style="stop-color:#667F45;stop-opacity:0.9085"/>
			<stop  offset="0.2293" style="stop-color:#709048;stop-opacity:0.8058"/>
			<stop  offset="0.3516" style="stop-color:#779B4A;stop-opacity:0.6778"/>
			<stop  offset="0.5233" style="stop-color:#7BA24C;stop-opacity:0.4984"/>
			<stop  offset="1" style="stop-color:#7CA44C;stop-opacity:0"/>
		</linearGradient>
		<path style="fill:url(#SVGID_00000096017845786691147350000003429988904597487243_);" d="M31.6,347.3v-11.1h3.8l52,58.8v11.2h-3.7
			L31.6,347.3z M31.6,354.6l10.9,12V405H31.6V354.6z M76.5,375.8v-38.5h10.9v50.3L76.5,375.8z"/>
		
			<linearGradient id="SVGID_00000140011663771929464240000004360332482759866521_" gradientUnits="userSpaceOnUse" x1="128.3172" y1="402.8106" x2="129.7104" y2="336.4958">
			<stop  offset="4.347227e-02" style="stop-color:#596840"/>
			<stop  offset="4.715854e-02" style="stop-color:#5A6940;stop-opacity:0.9961"/>
			<stop  offset="0.131" style="stop-color:#667F45;stop-opacity:0.9085"/>
			<stop  offset="0.2293" style="stop-color:#709048;stop-opacity:0.8058"/>
			<stop  offset="0.3516" style="stop-color:#779B4A;stop-opacity:0.6778"/>
			<stop  offset="0.5233" style="stop-color:#7BA24C;stop-opacity:0.4984"/>
			<stop  offset="1" style="stop-color:#7CA44C;stop-opacity:0"/>
		</linearGradient>
		<path style="fill:url(#SVGID_00000140011663771929464240000004360332482759866521_);" d="M101.3,337.3h56.5v9.7h-56.5V337.3z
			 M124.1,351.8H135V405h-10.9V351.8z"/>
		
			<linearGradient id="SVGID_00000038391779788308054670000007404755288011360686_" gradientUnits="userSpaceOnUse" x1="198.4843" y1="404.2847" x2="199.8775" y2="337.9699">
			<stop  offset="4.347227e-02" style="stop-color:#596840"/>
			<stop  offset="4.715854e-02" style="stop-color:#5A6940;stop-opacity:0.9961"/>
			<stop  offset="0.131" style="stop-color:#667F45;stop-opacity:0.9085"/>
			<stop  offset="0.2293" style="stop-color:#709048;stop-opacity:0.8058"/>
			<stop  offset="0.3516" style="stop-color:#779B4A;stop-opacity:0.6778"/>
			<stop  offset="0.5233" style="stop-color:#7BA24C;stop-opacity:0.4984"/>
			<stop  offset="1" style="stop-color:#7CA44C;stop-opacity:0"/>
		</linearGradient>
		<path style="fill:url(#SVGID_00000038391779788308054670000007404755288011360686_);" d="M171.7,337.3h24.7
			c6.8,0,12.4,1.9,16.6,5.7c4.2,3.8,6.4,8.8,6.4,15c0,6.2-2.1,11.2-6.4,15c-4.2,3.9-9.8,5.8-16.6,5.8h-9.1v-9.6h9
			c3.8,0,6.7-1,8.8-3.1c2.1-2.1,3.1-4.7,3.1-8c0-3.4-1-6.1-3.1-8.1c-2.1-2.1-5-3.1-8.8-3.1h-13.7V405h-10.9V337.3z M198.5,383.6
			l11-2.2l17.2,23.6h-12.4L198.5,383.6z"/>
		
			<linearGradient id="SVGID_00000097478173942979609790000003549676193101046716_" gradientUnits="userSpaceOnUse" x1="265.5249" y1="405.6984" x2="266.9181" y2="339.3836">
			<stop  offset="4.347227e-02" style="stop-color:#596840"/>
			<stop  offset="4.715854e-02" style="stop-color:#5A6940;stop-opacity:0.9961"/>
			<stop  offset="0.131" style="stop-color:#667F45;stop-opacity:0.9085"/>
			<stop  offset="0.2293" style="stop-color:#709048;stop-opacity:0.8058"/>
			<stop  offset="0.3516" style="stop-color:#779B4A;stop-opacity:0.6778"/>
			<stop  offset="0.5233" style="stop-color:#7BA24C;stop-opacity:0.4984"/>
			<stop  offset="1" style="stop-color:#7CA44C;stop-opacity:0"/>
		</linearGradient>
		<path style="fill:url(#SVGID_00000097478173942979609790000003549676193101046716_);" d="M257.2,351l5.6,13.2l-8.6,20.2h17.3
			l4.1,9.3h-25.4l-4.8,11.3h-11.6L257.2,351z M259.8,344.9l3.9-8.7h3.7l29.8,68.8h-11.7L259.8,344.9z"/>
		
			<linearGradient id="SVGID_00000080200423333619182240000017787781587823198633_" gradientUnits="userSpaceOnUse" x1="338.8323" y1="407.2332" x2="340.2255" y2="340.9184">
			<stop  offset="4.347227e-02" style="stop-color:#596840"/>
			<stop  offset="4.715854e-02" style="stop-color:#5A6940;stop-opacity:0.9961"/>
			<stop  offset="0.131" style="stop-color:#667F45;stop-opacity:0.9085"/>
			<stop  offset="0.2293" style="stop-color:#709048;stop-opacity:0.8058"/>
			<stop  offset="0.3516" style="stop-color:#779B4A;stop-opacity:0.6778"/>
			<stop  offset="0.5233" style="stop-color:#7BA24C;stop-opacity:0.4984"/>
			<stop  offset="1" style="stop-color:#7CA44C;stop-opacity:0"/>
		</linearGradient>
		<path style="fill:url(#SVGID_00000080200423333619182240000017787781587823198633_);" d="M311.7,347.3v-11.1h3.8l52,58.8v11.2
			h-3.7L311.7,347.3z M311.7,354.6l10.9,12V405h-10.9V354.6z M356.6,375.8v-38.5h10.9v50.3L356.6,375.8z"/>
		
			<linearGradient id="SVGID_00000180328945384201562240000002353442801569448835_" gradientUnits="userSpaceOnUse" x1="410.3911" y1="408.7366" x2="411.7843" y2="342.4218">
			<stop  offset="4.347227e-02" style="stop-color:#596840"/>
			<stop  offset="4.715854e-02" style="stop-color:#5A6940;stop-opacity:0.9961"/>
			<stop  offset="0.131" style="stop-color:#667F45;stop-opacity:0.9085"/>
			<stop  offset="0.2293" style="stop-color:#709048;stop-opacity:0.8058"/>
			<stop  offset="0.3516" style="stop-color:#779B4A;stop-opacity:0.6778"/>
			<stop  offset="0.5233" style="stop-color:#7BA24C;stop-opacity:0.4984"/>
			<stop  offset="1" style="stop-color:#7CA44C;stop-opacity:0"/>
		</linearGradient>
		<path style="fill:url(#SVGID_00000180328945384201562240000002353442801569448835_);" d="M388.3,337.3h44.5v9.7h-33.6v48.2h34.9
			v9.7h-45.7V337.3z M403.9,364.5h20.6v9.2h-20.6V364.5z"/>
		
			<linearGradient id="SVGID_00000136386042344750640630000014545531167813020607_" gradientUnits="userSpaceOnUse" x1="470.3184" y1="409.9955" x2="471.7115" y2="343.6807">
			<stop  offset="4.347227e-02" style="stop-color:#596840"/>
			<stop  offset="4.715854e-02" style="stop-color:#5A6940;stop-opacity:0.9961"/>
			<stop  offset="0.131" style="stop-color:#667F45;stop-opacity:0.9085"/>
			<stop  offset="0.2293" style="stop-color:#709048;stop-opacity:0.8058"/>
			<stop  offset="0.3516" style="stop-color:#779B4A;stop-opacity:0.6778"/>
			<stop  offset="0.5233" style="stop-color:#7BA24C;stop-opacity:0.4984"/>
			<stop  offset="1" style="stop-color:#7CA44C;stop-opacity:0"/>
		</linearGradient>
		<path style="fill:url(#SVGID_00000136386042344750640630000014545531167813020607_);" d="M443.5,337.3H500v9.7h-56.5V337.3z
			 M466.3,351.8h10.9V405h-10.9V351.8z"/>
	</g>
</g>
</svg>