<?xml version="1.0" encoding="utf-8"?>
<!-- Generator: Adobe Illustrator 25.4.1, SVG Export Plug-In . SVG Version: 6.00 Build 0)  -->
<svg version="1.1" id="Layer_1" xmlns="http://www.w3.org/2000/svg" xmlns:xlink="http://www.w3.org/1999/xlink" x="0px" y="0px"
	 viewBox="0 0 4056 2048" style="enable-background:new 0 0 4056 2048;" xml:space="preserve">
<style type="text/css">
	.st0{opacity:0.2;fill:#AAFF48;stroke:#020202;stroke-width:6;stroke-miterlimit:10;}
	
		.st1{clip-path:url(#SVGID_00000072278412773513039830000015698035977974367416_);fill:#9FBEC9;stroke:#231F20;stroke-width:0.9;stroke-miterlimit:10;}
	.st2{clip-path:url(#SVGID_00000093160547144444670030000008227635376104885688_);}
	.st3{fill:none;}
	.st4{fill:#1F191A;}
	.st5{clip-path:url(#SVGID_00000044169726647918425200000016171342153260194466_);fill:none;}
	.st6{fill:#9FBEC9;stroke:#231F20;stroke-width:3;stroke-miterlimit:10;}
	.st7{fill:#9FBEC9;stroke:#231F20;stroke-width:2;stroke-miterlimit:10;}
	.st8{fill:none;stroke:#231F20;stroke-width:4;stroke-miterlimit:10;}
	.st9{fill:#4C5D5F;stroke:#231F20;stroke-width:4;stroke-miterlimit:10;}
	.st10{fill:none;stroke:#020202;stroke-width:6;stroke-miterlimit:10;}
	.st11{fill:#9FBEC9;stroke:#231F20;stroke-width:4;stroke-miterlimit:10;}
	.st12{fill:#4C5D5F;stroke:#AAFF48;stroke-width:8;stroke-miterlimit:10;}
	.st13{fill:none;stroke:#AAFF48;stroke-width:8;stroke-miterlimit:10;}
</style>
<rect x="134.58" y="46.42" class="st0" width="3233.52" height="1885.2"/>
<g>
	<g>
		<defs>
			<rect id="SVGID_1_" x="3517.14" y="1002.48" width="421.47" height="111.48"/>
		</defs>
		<clipPath id="SVGID_00000090261360010478480080000008097817679902918333_">
			<use xlink:href="#SVGID_1_"  style="overflow:visible;"/>
		</clipPath>
		
			<rect x="3517.14" y="1002.59" style="clip-path:url(#SVGID_00000090261360010478480080000008097817679902918333_);fill:#9FBEC9;stroke:#231F20;stroke-width:0.9;stroke-miterlimit:10;" width="421.47" height="111.48"/>
	</g>
	<g>
		<defs>
			<rect id="SVGID_00000078004694145118639350000016955568110009276559_" x="3517.14" y="1002.48" width="421.47" height="111.48"/>
		</defs>
		<clipPath id="SVGID_00000054955520811674875420000010568374379667793803_">
			<use xlink:href="#SVGID_00000078004694145118639350000016955568110009276559_"  style="overflow:visible;"/>
		</clipPath>
		<g style="clip-path:url(#SVGID_00000054955520811674875420000010568374379667793803_);">
			<g>
				<line class="st3" x1="3799.22" y1="1118.42" x2="3837" y2="992.13"/>
				
					<rect x="3752.2" y="1052.87" transform="matrix(0.2865 -0.9581 0.9581 0.2865 1713.1962 4411.0132)" class="st4" width="131.82" height="4.82"/>
			</g>
			<g>
				<line class="st3" x1="3760.44" y1="1118.42" x2="3799.22" y2="1000.87"/>
				
					<rect x="3717.93" y="1057.24" transform="matrix(0.3133 -0.9497 0.9497 0.3133 1589.3489 4317.2222)" class="st4" width="123.79" height="4.82"/>
			</g>
			<g>
				<line class="st3" x1="3722.53" y1="1118.42" x2="3760.44" y2="1000.87"/>
				
					<rect x="3679.73" y="1057.23" transform="matrix(0.307 -0.9517 0.9517 0.307 1584.3691 4295.1396)" class="st4" width="123.52" height="4.82"/>
			</g>
			<g>
				<line class="st3" x1="3682.88" y1="1118.42" x2="3722.53" y2="1000.87"/>
				
					<rect x="3640.66" y="1057.26" transform="matrix(0.3195 -0.9476 0.9476 0.3195 1515.5719 4229.7383)" class="st4" width="124.07" height="4.82"/>
			</g>
			<g>
				<line class="st3" x1="3645.69" y1="1115.8" x2="3685.34" y2="998.25"/>
				
					<rect x="3603.49" y="1054.63" transform="matrix(0.3195 -0.9476 0.9476 0.3195 1492.7579 4192.7246)" class="st4" width="124.07" height="4.82"/>
			</g>
			<g>
				<line class="st3" x1="3607.17" y1="1115.8" x2="3646.8" y2="998.25"/>
				
					<rect x="3564.95" y="1054.63" transform="matrix(0.3195 -0.9476 0.9476 0.3195 1466.5316 4156.2056)" class="st4" width="124.07" height="4.82"/>
			</g>
			<g>
				<line class="st3" x1="3567.52" y1="1115.8" x2="3607.17" y2="998.25"/>
				
					<rect x="3525.3" y="1054.64" transform="matrix(0.3195 -0.9476 0.9476 0.3195 1439.5508 4118.6357)" class="st4" width="124.07" height="4.82"/>
			</g>
			<g>
				<line class="st3" x1="3527.88" y1="1118.42" x2="3567.52" y2="1000.87"/>
				
					<rect x="3485.66" y="1057.27" transform="matrix(0.3195 -0.9476 0.9476 0.3195 1410.0836 4082.8669)" class="st4" width="124.07" height="4.82"/>
			</g>
			<g>
				<line class="st3" x1="3517.82" y1="1057.03" x2="3536.36" y2="1002.03"/>
				
					<rect x="3498.07" y="1027.13" transform="matrix(0.3195 -0.9476 0.9476 0.3195 1424.6155 4042.8289)" class="st4" width="58.03" height="4.82"/>
			</g>
			<g>
				<line class="st3" x1="3837.07" y1="1122.8" x2="3874.85" y2="996.5"/>
				
					<rect x="3790.05" y="1057.25" transform="matrix(0.2865 -0.9581 0.9581 0.2865 1736.012 4450.3984)" class="st4" width="131.82" height="4.82"/>
			</g>
			<g>
				<line class="st3" x1="3875.33" y1="1124.53" x2="3913.1" y2="998.25"/>
				
					<rect x="3828.31" y="1058.98" transform="matrix(0.2865 -0.9581 0.9581 0.2865 1761.6436 4488.2852)" class="st4" width="131.82" height="4.82"/>
			</g>
			<g>
				<line class="st3" x1="3912.29" y1="1131.9" x2="3950.06" y2="1005.6"/>
				
					<rect x="3865.28" y="1066.35" transform="matrix(0.2865 -0.9581 0.9581 0.2865 1780.964 4528.9619)" class="st4" width="131.82" height="4.82"/>
			</g>
		</g>
	</g>
	<g>
		<defs>
			<rect id="SVGID_00000052062867136309619530000014154678783967467148_" x="3517.14" y="1002.48" width="421.47" height="111.48"/>
		</defs>
		<clipPath id="SVGID_00000014622088426136856190000016611880006175689355_">
			<use xlink:href="#SVGID_00000052062867136309619530000014154678783967467148_"  style="overflow:visible;"/>
		</clipPath>
		
			<rect x="3517.14" y="1002.59" style="clip-path:url(#SVGID_00000014622088426136856190000016611880006175689355_);fill:none;" width="421.47" height="111.48"/>
	</g>
</g>
<path class="st6" d="M3683.09,1179.46"/>
<path class="st7" d="M3854.86,1134.36"/>
<rect x="3517.14" y="1002.48" class="st8" width="421.47" height="111.48"/>
<path class="st9" d="M3368.1,1117.34V996.91c0-7.37,5.98-13.34,13.34-13.34h54.51c7.37,0,13.34,5.98,13.34,13.34v120.42
	c0,7.37-5.98,13.34-13.34,13.34h-54.51C3374.08,1130.68,3368.1,1124.71,3368.1,1117.34z"/>
<path class="st9" d="M3449.29,1109.48v-104.71c0-5.04,4.09-9.11,9.11-9.11h49.63c5.04,0,9.11,4.09,9.11,9.11v104.69
	c0,5.04-4.09,9.11-9.11,9.11h-49.63C3453.38,1118.58,3449.3,1114.5,3449.29,1109.48z"/>
<rect x="134.58" y="40.97" class="st10" width="3233.52" height="1885.2"/>
<g>
	<circle class="st11" cx="1751.34" cy="1926.17" r="102.34"/>
	<circle class="st8" cx="1751.34" cy="1926.17" r="93.18"/>
	<circle class="st9" cx="1633.51" cy="1931.1" r="16.12"/>
	<circle class="st9" cx="1869.18" cy="1931.1" r="16.12"/>
	<circle class="st9" cx="1751.34" cy="1926.17" r="63.18"/>
	<circle class="st12" cx="1751.34" cy="1926.17" r="54.28"/>
	<line class="st13" x1="1751.24" y1="1873.23" x2="1751.44" y2="1979.11"/>
	<line class="st13" x1="1698.4" y1="1925.06" x2="1804.28" y2="1926.17"/>
</g>
</svg>