<?xml version="1.0" encoding="utf-8"?>
<!-- Generator: Adobe Illustrator 25.4.1, SVG Export Plug-In . SVG Version: 6.00 Build 0)  -->
<svg version="1.1" id="Layer_1" xmlns="http://www.w3.org/2000/svg" xmlns:xlink="http://www.w3.org/1999/xlink" x="0px" y="0px"
	 viewBox="0 0 4056 2048" style="enable-background:new 0 0 4056 2048;" xml:space="preserve">
<style type="text/css" scopes="preserve">
	.st0{fill:#9FBEC9;stroke:#231F20;stroke-width:3;stroke-miterlimit:10;}
	.st1{fill:#9FBEC9;stroke:#231F20;stroke-width:2;stroke-miterlimit:10;}
	.st2{fill:none;stroke:#231F20;stroke-width:4;stroke-miterlimit:10;}
	.st3{clip-path:url(#SVGID_00000108285459254800631440000000922154888257355155_);}
	.st4{fill:none;}
	.st5{fill:#1F191A;}
	.st6{clip-path:url(#SVGID_00000093870444925629713360000002337532875867566764_);fill:none;}
	.st7{clip-path:url(#SVGID_00000063598094109990342290000013703702130428372385_);fill:none;}
	.st8{fill:none;stroke:#020202;stroke-width:6;stroke-miterlimit:10;}
	.st9{fill:#9FBEC9;stroke:#231F20;stroke-width:4;stroke-miterlimit:10;}
	.st10{fill:#4C5D5F;stroke:#231F20;stroke-width:4;stroke-miterlimit:10;}
	.st11{fill:#4C5D5F;stroke:#AAFF48;stroke-width:8;stroke-miterlimit:10;}
	.st12{fill:none;stroke:#AAFF48;stroke-width:8;stroke-miterlimit:10;}
</style>
<path class="st0" d="M3521.17,985.32"/>
<path class="st1" d="M3859.93,1132.89"/>
<rect x="3521.17" y="1000.61" class="st2" width="422.77" height="111.82"/>
<path class="st2" d="M3371.67,1115.81V995.02c0-7.39,6-13.39,13.39-13.39h54.68c7.39,0,13.39,6,13.39,13.39v120.79
	c0,7.39-6,13.39-13.39,13.39h-54.68C3377.67,1129.2,3371.67,1123.21,3371.67,1115.81z"/>
<path class="st2" d="M3453.11,1107.93V1002.9c0-5.05,4.1-9.14,9.14-9.14h49.78c5.05,0,9.14,4.1,9.14,9.14v105.02
	c0,5.05-4.1,9.14-9.14,9.14h-49.78C3457.21,1117.06,3453.12,1112.97,3453.11,1107.93z"/>
<g>
	<g>
		<defs>
			<rect id="SVGID_1_" x="3521.17" y="1000.61" width="422.77" height="111.82"/>
		</defs>
		<clipPath id="SVGID_00000078766004418581520180000016129135068225407370_">
			<use xlink:href="#SVGID_1_"  style="overflow:visible;"/>
		</clipPath>
		<g style="clip-path:url(#SVGID_00000078766004418581520180000016129135068225407370_);">
			<g>
				<line class="st4" x1="3799.66" y1="1115.48" x2="3837.56" y2="988.8"/>
				
					<rect x="3752.5" y="1049.73" transform="matrix(0.2865 -0.9581 0.9581 0.2865 1716.5621 4409.2563)" class="st5" width="132.22" height="4.84"/>
			</g>
			<g>
				<line class="st4" x1="3760.77" y1="1115.48" x2="3799.66" y2="997.56"/>
				
					<rect x="3718.12" y="1054.11" transform="matrix(0.3133 -0.9497 0.9497 0.3133 1592.5815 4315.4424)" class="st5" width="124.17" height="4.84"/>
			</g>
			<g>
				<line class="st4" x1="3722.74" y1="1115.48" x2="3760.77" y2="997.56"/>
				
					<rect x="3679.8" y="1054.1" transform="matrix(0.307 -0.9517 0.9517 0.307 1587.5248 4293.2158)" class="st5" width="123.9" height="4.84"/>
			</g>
			<g>
				<line class="st4" x1="3682.97" y1="1115.48" x2="3722.74" y2="997.56"/>
				
					<rect x="3640.62" y="1054.12" transform="matrix(0.3195 -0.9476 0.9476 0.3195 1518.6343 4227.7529)" class="st5" width="124.45" height="4.84"/>
			</g>
			<g>
				<line class="st4" x1="3645.67" y1="1112.85" x2="3685.44" y2="994.93"/>
				
					<rect x="3603.32" y="1051.49" transform="matrix(0.3195 -0.9476 0.9476 0.3195 1495.746 4190.6118)" class="st5" width="124.45" height="4.84"/>
			</g>
			<g>
				<line class="st4" x1="3607.01" y1="1112.85" x2="3646.78" y2="994.93"/>
				
					<rect x="3564.67" y="1051.49" transform="matrix(0.3195 -0.9476 0.9476 0.3195 1469.4432 4153.9941)" class="st5" width="124.45" height="4.84"/>
			</g>
			<g>
				<line class="st4" x1="3567.25" y1="1112.85" x2="3607.01" y2="994.93"/>
				
					<rect x="3524.9" y="1051.49" transform="matrix(0.3195 -0.9476 0.9476 0.3195 1442.3795 4116.3091)" class="st5" width="124.45" height="4.84"/>
			</g>
			<g>
				<line class="st4" x1="3527.48" y1="1115.48" x2="3567.25" y2="997.56"/>
				
					<rect x="3485.14" y="1054.13" transform="matrix(0.3195 -0.9476 0.9476 0.3195 1412.822 4080.4302)" class="st5" width="124.45" height="4.84"/>
			</g>
			<g>
				<line class="st4" x1="3517.4" y1="1053.89" x2="3536" y2="998.73"/>
				
					<rect x="3497.59" y="1023.92" transform="matrix(0.3195 -0.9476 0.9476 0.3195 1427.385 4040.2732)" class="st5" width="58.21" height="4.84"/>
			</g>
			<g>
				<line class="st4" x1="3837.63" y1="1119.86" x2="3875.53" y2="993.18"/>
				
					<rect x="3790.47" y="1054.11" transform="matrix(0.2865 -0.9581 0.9581 0.2865 1739.4479 4448.7622)" class="st5" width="132.22" height="4.84"/>
			</g>
			<g>
				<line class="st4" x1="3876" y1="1121.62" x2="3913.89" y2="994.93"/>
				
					<rect x="3828.84" y="1055.85" transform="matrix(0.2865 -0.9581 0.9581 0.2865 1765.1582 4486.7651)" class="st5" width="132.22" height="4.84"/>
			</g>
			<g>
				<line class="st4" x1="3913.08" y1="1128.99" x2="3950.97" y2="1002.31"/>
				
					<rect x="3865.91" y="1063.24" transform="matrix(0.2865 -0.9581 0.9581 0.2865 1784.5332 4527.5532)" class="st5" width="132.22" height="4.84"/>
			</g>
		</g>
	</g>
	<g>
		<defs>
			<rect id="SVGID_00000123405725165320258140000012003579203981045143_" x="3521.17" y="1000.61" width="422.77" height="111.82"/>
		</defs>
		<clipPath id="SVGID_00000147202953534078717950000003319595023743434888_">
			<use xlink:href="#SVGID_00000123405725165320258140000012003579203981045143_"  style="overflow:visible;"/>
		</clipPath>
		
			<rect x="3516.72" y="999.3" style="clip-path:url(#SVGID_00000147202953534078717950000003319595023743434888_);fill:none;" width="422.77" height="111.82"/>
	</g>
	<g>
		<defs>
			<rect id="SVGID_00000100350320668085185190000005321767125397285286_" x="3521.17" y="1000.61" width="422.77" height="111.82"/>
		</defs>
		<clipPath id="SVGID_00000108279741351180985250000000386642616295955368_">
			<use xlink:href="#SVGID_00000100350320668085185190000005321767125397285286_"  style="overflow:visible;"/>
		</clipPath>
		
			<rect x="3516.72" y="999.19" style="clip-path:url(#SVGID_00000108279741351180985250000000386642616295955368_);fill:none;" width="422.77" height="111.82"/>
	</g>
</g>
<rect x="155.73" y="44.8" class="st8" width="3215.94" height="1874.95"/>
<g>
	<circle class="st9" cx="1730.23" cy="1914.87" r="106.29"/>
	<circle class="st2" cx="1730.23" cy="1914.87" r="96.78"/>
	<circle class="st10" cx="1607.84" cy="1919.99" r="16.74"/>
	<circle class="st10" cx="1852.61" cy="1919.99" r="16.74"/>
	<circle class="st10" cx="1730.23" cy="1914.87" r="65.62"/>
	<circle class="st11" cx="1730.23" cy="1914.87" r="56.38"/>
	<line class="st12" x1="1730.13" y1="1859.89" x2="1730.33" y2="1969.86"/>
	<line class="st12" x1="1675.24" y1="1913.72" x2="1785.21" y2="1914.87"/>
</g>
</svg>